# xmcd
#
# Track frame offsets:
#	150
#	16735
#	33010
#	51120
#	67390
#	80979
#	98595
#	113725
#	129247
#	147055
#	162240
#	178845
#	195127
#	213317
#	229657
#	243262
#	260882
#	276047
#	291535
#	309352
#
# Disc length: 4400
#
# Revision: 1
# Processed by: cddbd v1.5.2PL0 Copyright (c) Steve Scherf et al.
# Submitted via: kJams Pro (development) 1.0patch49.33
#
DISCID=19112e14
DTITLE=Various Artist - Top Hits Monthly Country Oct 1998 − 9810−C
DYEAR=1998
DGENRE=Country
TTITLE0=Collin Raye - I Can Still Feel You (Vocal)
TTITLE1=Mark Wills - Don't Laugh At Me  (Vocal)
TTITLE2=Alan Jackson - I'll Go On Loving You (Vocal)
TTITLE3=Brooks and Dunn - How Long Gone (Vocal)
TTITLE4=Alabama - How Do You Fall In Love (Vocal)
TTITLE5=Diamond Rio - You're Gone (Vocal)
TTITLE6=Tim McGraw - Where the Green Grass Grows (Vocal)
TTITLE7=Tracy Byrd - I Wanna Feel That Way Again (Vocal)
TTITLE8=John Michael Montgomery - Cover You In Kisses (Vocal)
TTITLE9=Toby Keith - Getcha Some (Vocal)
TTITLE10=Collin Raye - I Can Still Feel You
TTITLE11=Mark Wills - Don't Laugh At Me
TTITLE12=Alan Jackson - I'll Go On Loving You
TTITLE13=Brooks and Dunn - How Long Gone
TTITLE14=Alabama - How Do You Fall In Love
TTITLE15=Diamond Rio - You're Gone
TTITLE16=Tim McGraw - Where the Green Grass Grows
TTITLE17=Tracy Byrd - I Wanna Feel That Way Again
TTITLE18=John Michael Montgomery - Cover You In Kisses
TTITLE19=Toby Keith - Getcha Some
EXTD=
EXTT0=
EXTT1=
EXTT2=
EXTT3=
EXTT4=
EXTT5=
EXTT6=
EXTT7=
EXTT8=
EXTT9=
EXTT10=
EXTT11=
EXTT12=
EXTT13=
EXTT14=
EXTT15=
EXTT16=
EXTT17=
EXTT18=
EXTT19=
PLAYORDER=
